<svg id="WM_Logo_White___-758551287" data-name="WM Logo White" xmlns="http://www.w3.org/2000/svg" width="125.06" height="44.11" viewBox="0 0 125.06 44.11">
  <g>
    <path d="M10.07,43.33h2l.66,3.05h0l.94-3.05h2.38L17,46.38h0l.66-3.05h1.87l-1.19,4.95H15.74l-.9-3.05h0l-.91,3.05h-2.7Z" transform="translate(-1.48 -4.33)" style="fill: #fff"></path>
    <path d="M21.91,43.33h2.64l2.56,4.95H24.77l-.37-.82H21.81l-.39.82h-2Zm2,3.05-.78-1.73-.81,1.73Z" transform="translate(-1.48 -4.33)" style="fill: #fff"></path>
    <path d="M29.43,46.69a.69.69,0,0,0,.79.8c.44,0,.91-.1.91-.5a.34.34,0,0,0-.09-.22c-.28-.32-2.69-.55-3.36-1.13a1.14,1.14,0,0,1-.36-.86c0-1.08,1-1.57,3.05-1.57s2.78.58,2.81,1.6h-2a.64.64,0,0,0-.25-.55,1.08,1.08,0,0,0-.62-.13c-.44,0-.67.16-.67.42a.33.33,0,0,0,.08.23c.33.31,2.66.53,3.32,1.12a1.15,1.15,0,0,1,.4.92c0,1-.88,1.61-3.16,1.61-2.73,0-2.86-.8-2.9-1.72Z" transform="translate(-1.48 -4.33)" style="fill: #fff"></path>
    <path d="M35.5,44.54H33.87V43.33h5.4v1.2H37.62v3.74H35.5Z" transform="translate(-1.48 -4.33)" style="fill: #fff"></path>
    <path d="M40,43.33h4.8v1H42.07v.92h2.59v1H42.07v.92h2.79v1H40Z" transform="translate(-1.48 -4.33)" style="fill: #fff"></path>
    <path d="M48.71,43.33h3.21l1,3.32h0l1-3.32H57.2v4.95H55.26V44.56h0l-1.37,3.72h-2l-1.29-3.72h0v3.72H48.71Z" transform="translate(-1.48 -4.33)" style="fill: #fff"></path>
    <path d="M60.25,43.33h2.64l2.55,4.95H63.09l-.37-.82H60.13l-.39.82h-2Zm2,3.05-.77-1.73-.81,1.73Z" transform="translate(-1.48 -4.33)" style="fill: #fff"></path>
    <path d="M65.87,43.33h3.05l1.69,3.32h0V43.33h1.85v4.95h-3l-1.79-3.52h0v3.52H65.88Z" transform="translate(-1.48 -4.33)" style="fill: #fff"></path>
    <path d="M75.52,43.33h2.64l2.55,4.95H78.37L78,47.45H75.4l-.39.82H73Zm2,3.05-.78-1.73L76,46.38Z" transform="translate(-1.48 -4.33)" style="fill: #fff"></path>
    <path d="M85,44.84a.69.69,0,0,0-.26-.4,1.13,1.13,0,0,0-.71-.2,1.33,1.33,0,0,0-1.39,1.5c0,1,.45,1.64,1.5,1.64a2.21,2.21,0,0,0,1-.17v-.75H83.93v-1h3.29V48a16.57,16.57,0,0,1-3.4.4c-2.52,0-3.3-1.08-3.3-2.54,0-1.86,1.32-2.67,3.54-2.67,1.82,0,3.12.39,3.16,1.64Z" transform="translate(-1.48 -4.33)" style="fill: #fff"></path>
    <path d="M88.36,43.33h4.8v1H90.39v.92H93v1H90.39v.92h2.8v1H88.36Z" transform="translate(-1.48 -4.33)" style="fill: #fff"></path>
    <path d="M94.13,43.33h3.21l1,3.32h0l1-3.32h3.22v4.95h-1.91V44.56h0L99.3,48.29h-2L96,44.56h0v3.72H94.13Z" transform="translate(-1.48 -4.33)" style="fill: #fff"></path>
    <path d="M103.81,43.33h4.8v1h-2.77v.92h2.59v1h-2.59v.92h2.8v1h-4.83Z" transform="translate(-1.48 -4.33)" style="fill: #fff"></path>
    <path d="M109.57,43.33h3.05l1.69,3.32h0V43.33h1.91v4.95h-3.05l-1.79-3.52h0v3.52h-1.84Z" transform="translate(-1.48 -4.33)" style="fill: #fff"></path>
    <path d="M118.39,44.54h-1.65V43.33h5.4v1.2h-1.65v3.74h-2.12Z" transform="translate(-1.48 -4.33)" style="fill: #fff"></path>
  </g>
  <g>
    <path d="M2.25,4.89H15.93l4.48,20.76h.15L26.85,4.89H42.68l6.21,20.76h.17L53.46,4.89H66.17l-8,33.25H40.35l-6-20.22h-.14L28.08,38.14h-18Z" transform="translate(-1.48 -4.33)" style="fill: #fff"></path>
    <path d="M58.68,38.71H39.9l-5.67-19-5.71,19H9.65L1.48,4.33H16.39l4.17,19.33L26.43,4.33H43.11l5.77,19.33L52.95,4.33h14ZM40.77,37.57h17L65.45,5.46H53.92L49.5,26.22h-1L42.27,5.46h-15L21,26.22H20L15.48,5.46H2.93l7.62,32.11H27.69l6.11-20.22h1Z" transform="translate(-1.48 -4.33)" style="fill: #fff"></path>
  </g>
  <path d="M123,38.71H109l-4.12-19.33L99.15,38.71H82.47L76.6,19.38,72.43,38.71H57.51l8.2-34.39H84.58l5.71,19L96,4.33h18.75Zm-13-1.15h11.55l-7.71-32.1h-17l-6,20.23h-1L83.66,5.47h-17L59,37.57H71.52L76,16.81h1l6.3,20.76h15l6.21-20.76h1Z" transform="translate(-1.48 -4.33)" style="fill: #fff"></path>
  <path d="M123,36.08a1.64,1.64,0,1,1,1.64,1.66,1.62,1.62,0,0,1-1.64-1.6S123,36.11,123,36.08Zm1.64,2a2,2,0,1,0-2-2,2,2,0,0,0,2,2Zm-.42-1.83h.4l.61,1h.39l-.66-1a.6.6,0,0,0,.6-.6s0,0,0,0c0-.46-.27-.65-.81-.65h-.89V37.3h.36Zm0-.3v-.71h.48c.24,0,.51.05.51.34s-.27.38-.57.38Z" transform="translate(-1.48 -4.33)" style="fill: #fff"></path>
</svg>
